<mxfile host="app.diagrams.net" modified="2024-05-21T02:16:26.055Z" agent="Mozilla/5.0 (Macintosh; Intel Mac OS X 10_15_7) AppleWebKit/537.36 (KHTML, like Gecko) Chrome/124.0.0.0 Safari/537.36" etag="DJ275pDlHHLncsM9QPOt" version="24.0.5" type="device">
  <diagram name="Trang-1" id="tjcpj0DoaNGhPtcWHAzM">
    <mxGraphModel dx="1908" dy="1060" grid="1" gridSize="10" guides="1" tooltips="1" connect="1" arrows="1" fold="1" page="1" pageScale="1" pageWidth="3300" pageHeight="4681" math="0" shadow="0">
      <root>
        <mxCell id="0" />
        <mxCell id="1" parent="0" />
        <mxCell id="_uEWm0PDSBc3kcxDk3wk-1" value="user" style="rounded=0;whiteSpace=wrap;html=1;" vertex="1" parent="1">
          <mxGeometry x="470" y="300" width="80" height="40" as="geometry" />
        </mxCell>
        <mxCell id="_uEWm0PDSBc3kcxDk3wk-2" value="member" style="rounded=0;whiteSpace=wrap;html=1;" vertex="1" parent="1">
          <mxGeometry x="670" y="300" width="80" height="40" as="geometry" />
        </mxCell>
        <mxCell id="_uEWm0PDSBc3kcxDk3wk-3" value="librarian" style="rounded=0;whiteSpace=wrap;html=1;" vertex="1" parent="1">
          <mxGeometry x="670" y="420" width="80" height="40" as="geometry" />
        </mxCell>
        <mxCell id="_uEWm0PDSBc3kcxDk3wk-4" value="admin" style="rounded=0;whiteSpace=wrap;html=1;" vertex="1" parent="1">
          <mxGeometry x="470" y="420" width="80" height="40" as="geometry" />
        </mxCell>
        <mxCell id="_uEWm0PDSBc3kcxDk3wk-5" value="Extends" style="endArrow=block;endSize=16;endFill=0;html=1;rounded=0;exitX=0;exitY=0.5;exitDx=0;exitDy=0;entryX=1;entryY=1;entryDx=0;entryDy=0;" edge="1" parent="1" source="_uEWm0PDSBc3kcxDk3wk-3" target="_uEWm0PDSBc3kcxDk3wk-1">
          <mxGeometry width="160" relative="1" as="geometry">
            <mxPoint x="600" y="300" as="sourcePoint" />
            <mxPoint x="760" y="300" as="targetPoint" />
          </mxGeometry>
        </mxCell>
        <mxCell id="_uEWm0PDSBc3kcxDk3wk-6" value="Extends" style="endArrow=block;endSize=16;endFill=0;html=1;rounded=0;exitX=0.5;exitY=0;exitDx=0;exitDy=0;entryX=0.5;entryY=1;entryDx=0;entryDy=0;" edge="1" parent="1" source="_uEWm0PDSBc3kcxDk3wk-4" target="_uEWm0PDSBc3kcxDk3wk-1">
          <mxGeometry width="160" relative="1" as="geometry">
            <mxPoint x="720" y="330" as="sourcePoint" />
            <mxPoint x="560" y="330" as="targetPoint" />
          </mxGeometry>
        </mxCell>
        <mxCell id="_uEWm0PDSBc3kcxDk3wk-7" value="Extends" style="endArrow=block;endSize=16;endFill=0;html=1;rounded=0;exitX=0;exitY=0.5;exitDx=0;exitDy=0;entryX=1;entryY=0.5;entryDx=0;entryDy=0;" edge="1" parent="1" source="_uEWm0PDSBc3kcxDk3wk-2" target="_uEWm0PDSBc3kcxDk3wk-1">
          <mxGeometry width="160" relative="1" as="geometry">
            <mxPoint x="730" y="340" as="sourcePoint" />
            <mxPoint x="570" y="340" as="targetPoint" />
          </mxGeometry>
        </mxCell>
        <mxCell id="_uEWm0PDSBc3kcxDk3wk-8" value="due_date" style="ellipse;whiteSpace=wrap;html=1;" vertex="1" parent="1">
          <mxGeometry x="230" y="330" width="90" height="40" as="geometry" />
        </mxCell>
        <mxCell id="_uEWm0PDSBc3kcxDk3wk-9" value="role" style="ellipse;whiteSpace=wrap;html=1;" vertex="1" parent="1">
          <mxGeometry x="250" y="240" width="90" height="40" as="geometry" />
        </mxCell>
        <mxCell id="_uEWm0PDSBc3kcxDk3wk-10" value="DOB" style="ellipse;whiteSpace=wrap;html=1;" vertex="1" parent="1">
          <mxGeometry x="260" y="410" width="90" height="40" as="geometry" />
        </mxCell>
        <mxCell id="_uEWm0PDSBc3kcxDk3wk-11" value="address" style="ellipse;whiteSpace=wrap;html=1;" vertex="1" parent="1">
          <mxGeometry x="300" y="360" width="90" height="40" as="geometry" />
        </mxCell>
        <mxCell id="_uEWm0PDSBc3kcxDk3wk-12" value="password" style="ellipse;whiteSpace=wrap;html=1;" vertex="1" parent="1">
          <mxGeometry x="340" y="440" width="90" height="40" as="geometry" />
        </mxCell>
        <mxCell id="_uEWm0PDSBc3kcxDk3wk-13" value="phone" style="ellipse;whiteSpace=wrap;html=1;" vertex="1" parent="1">
          <mxGeometry x="380" y="220" width="90" height="40" as="geometry" />
        </mxCell>
        <mxCell id="_uEWm0PDSBc3kcxDk3wk-14" value="email" style="ellipse;whiteSpace=wrap;html=1;" vertex="1" parent="1">
          <mxGeometry x="300" y="290" width="90" height="40" as="geometry" />
        </mxCell>
        <mxCell id="_uEWm0PDSBc3kcxDk3wk-15" value="&lt;u&gt;&lt;b&gt;id&lt;/b&gt;&lt;/u&gt;" style="ellipse;whiteSpace=wrap;html=1;" vertex="1" parent="1">
          <mxGeometry x="590" y="250" width="90" height="40" as="geometry" />
        </mxCell>
        <mxCell id="_uEWm0PDSBc3kcxDk3wk-16" value="name" style="ellipse;whiteSpace=wrap;html=1;" vertex="1" parent="1">
          <mxGeometry x="485" y="220" width="90" height="40" as="geometry" />
        </mxCell>
        <mxCell id="_uEWm0PDSBc3kcxDk3wk-18" value="author" style="ellipse;whiteSpace=wrap;html=1;" vertex="1" parent="1">
          <mxGeometry x="500" y="817.5" width="90" height="40" as="geometry" />
        </mxCell>
        <mxCell id="_uEWm0PDSBc3kcxDk3wk-19" value="due_date" style="ellipse;whiteSpace=wrap;html=1;" vertex="1" parent="1">
          <mxGeometry x="1030" y="270" width="90" height="40" as="geometry" />
        </mxCell>
        <mxCell id="_uEWm0PDSBc3kcxDk3wk-20" value="borrow_date" style="ellipse;whiteSpace=wrap;html=1;" vertex="1" parent="1">
          <mxGeometry x="1120" y="340" width="90" height="40" as="geometry" />
        </mxCell>
        <mxCell id="_uEWm0PDSBc3kcxDk3wk-21" value="checkout_date" style="ellipse;whiteSpace=wrap;html=1;" vertex="1" parent="1">
          <mxGeometry x="1130" y="290" width="90" height="40" as="geometry" />
        </mxCell>
        <mxCell id="_uEWm0PDSBc3kcxDk3wk-22" value="" style="endArrow=none;html=1;rounded=0;exitX=1;exitY=0.5;exitDx=0;exitDy=0;entryX=0;entryY=1;entryDx=0;entryDy=0;" edge="1" parent="1" source="_uEWm0PDSBc3kcxDk3wk-10" target="_uEWm0PDSBc3kcxDk3wk-1">
          <mxGeometry width="50" height="50" relative="1" as="geometry">
            <mxPoint x="440" y="390" as="sourcePoint" />
            <mxPoint x="480" y="360" as="targetPoint" />
          </mxGeometry>
        </mxCell>
        <mxCell id="_uEWm0PDSBc3kcxDk3wk-23" value="" style="endArrow=none;html=1;rounded=0;exitX=1;exitY=0;exitDx=0;exitDy=0;" edge="1" parent="1" source="_uEWm0PDSBc3kcxDk3wk-12">
          <mxGeometry width="50" height="50" relative="1" as="geometry">
            <mxPoint x="457" y="436" as="sourcePoint" />
            <mxPoint x="490" y="340" as="targetPoint" />
          </mxGeometry>
        </mxCell>
        <mxCell id="_uEWm0PDSBc3kcxDk3wk-24" value="" style="endArrow=none;html=1;rounded=0;exitX=0;exitY=0.75;exitDx=0;exitDy=0;entryX=1;entryY=0;entryDx=0;entryDy=0;" edge="1" parent="1" source="_uEWm0PDSBc3kcxDk3wk-1" target="_uEWm0PDSBc3kcxDk3wk-11">
          <mxGeometry width="50" height="50" relative="1" as="geometry">
            <mxPoint x="467" y="446" as="sourcePoint" />
            <mxPoint x="510" y="360" as="targetPoint" />
          </mxGeometry>
        </mxCell>
        <mxCell id="_uEWm0PDSBc3kcxDk3wk-25" value="" style="endArrow=none;html=1;rounded=0;exitX=0;exitY=0.25;exitDx=0;exitDy=0;entryX=1;entryY=0.5;entryDx=0;entryDy=0;" edge="1" parent="1" source="_uEWm0PDSBc3kcxDk3wk-1" target="_uEWm0PDSBc3kcxDk3wk-8">
          <mxGeometry width="50" height="50" relative="1" as="geometry">
            <mxPoint x="477" y="456" as="sourcePoint" />
            <mxPoint x="520" y="370" as="targetPoint" />
          </mxGeometry>
        </mxCell>
        <mxCell id="_uEWm0PDSBc3kcxDk3wk-26" value="" style="endArrow=none;html=1;rounded=0;exitX=0;exitY=0;exitDx=0;exitDy=0;entryX=1;entryY=0.5;entryDx=0;entryDy=0;" edge="1" parent="1" source="_uEWm0PDSBc3kcxDk3wk-1" target="_uEWm0PDSBc3kcxDk3wk-14">
          <mxGeometry width="50" height="50" relative="1" as="geometry">
            <mxPoint x="487" y="466" as="sourcePoint" />
            <mxPoint x="530" y="380" as="targetPoint" />
          </mxGeometry>
        </mxCell>
        <mxCell id="_uEWm0PDSBc3kcxDk3wk-27" value="" style="endArrow=none;html=1;rounded=0;exitX=0.25;exitY=0;exitDx=0;exitDy=0;entryX=1;entryY=0.5;entryDx=0;entryDy=0;" edge="1" parent="1" source="_uEWm0PDSBc3kcxDk3wk-1" target="_uEWm0PDSBc3kcxDk3wk-9">
          <mxGeometry width="50" height="50" relative="1" as="geometry">
            <mxPoint x="497" y="476" as="sourcePoint" />
            <mxPoint x="540" y="390" as="targetPoint" />
          </mxGeometry>
        </mxCell>
        <mxCell id="_uEWm0PDSBc3kcxDk3wk-28" value="" style="endArrow=none;html=1;rounded=0;entryX=1;entryY=1;entryDx=0;entryDy=0;exitX=0.5;exitY=0;exitDx=0;exitDy=0;" edge="1" parent="1" source="_uEWm0PDSBc3kcxDk3wk-1" target="_uEWm0PDSBc3kcxDk3wk-13">
          <mxGeometry width="50" height="50" relative="1" as="geometry">
            <mxPoint x="507" y="486" as="sourcePoint" />
            <mxPoint x="550" y="400" as="targetPoint" />
          </mxGeometry>
        </mxCell>
        <mxCell id="_uEWm0PDSBc3kcxDk3wk-29" value="" style="endArrow=none;html=1;rounded=0;exitX=0.75;exitY=0;exitDx=0;exitDy=0;entryX=0.5;entryY=1;entryDx=0;entryDy=0;" edge="1" parent="1" source="_uEWm0PDSBc3kcxDk3wk-1" target="_uEWm0PDSBc3kcxDk3wk-16">
          <mxGeometry width="50" height="50" relative="1" as="geometry">
            <mxPoint x="517" y="496" as="sourcePoint" />
            <mxPoint x="560" y="410" as="targetPoint" />
          </mxGeometry>
        </mxCell>
        <mxCell id="_uEWm0PDSBc3kcxDk3wk-30" value="" style="endArrow=none;html=1;rounded=0;exitX=1;exitY=0;exitDx=0;exitDy=0;entryX=0;entryY=1;entryDx=0;entryDy=0;" edge="1" parent="1" source="_uEWm0PDSBc3kcxDk3wk-1" target="_uEWm0PDSBc3kcxDk3wk-15">
          <mxGeometry width="50" height="50" relative="1" as="geometry">
            <mxPoint x="540" y="346" as="sourcePoint" />
            <mxPoint x="583" y="260" as="targetPoint" />
          </mxGeometry>
        </mxCell>
        <mxCell id="_uEWm0PDSBc3kcxDk3wk-32" value="request" style="rounded=0;whiteSpace=wrap;html=1;" vertex="1" parent="1">
          <mxGeometry x="990" y="360" width="80" height="40" as="geometry" />
        </mxCell>
        <mxCell id="_uEWm0PDSBc3kcxDk3wk-33" value="make" style="rhombus;whiteSpace=wrap;html=1;" vertex="1" parent="1">
          <mxGeometry x="830" y="292.5" width="90" height="55" as="geometry" />
        </mxCell>
        <mxCell id="_uEWm0PDSBc3kcxDk3wk-34" value="changeStatus" style="rhombus;whiteSpace=wrap;html=1;" vertex="1" parent="1">
          <mxGeometry x="830" y="412.5" width="90" height="55" as="geometry" />
        </mxCell>
        <mxCell id="_uEWm0PDSBc3kcxDk3wk-37" value="" style="endArrow=none;html=1;edgeStyle=orthogonalEdgeStyle;rounded=0;exitX=1;exitY=0.5;exitDx=0;exitDy=0;entryX=0;entryY=0.5;entryDx=0;entryDy=0;" edge="1" parent="1" source="_uEWm0PDSBc3kcxDk3wk-2" target="_uEWm0PDSBc3kcxDk3wk-33">
          <mxGeometry relative="1" as="geometry">
            <mxPoint x="790" y="480" as="sourcePoint" />
            <mxPoint x="830" y="440" as="targetPoint" />
          </mxGeometry>
        </mxCell>
        <mxCell id="_uEWm0PDSBc3kcxDk3wk-38" value="1" style="edgeLabel;resizable=0;html=1;align=left;verticalAlign=bottom;" connectable="0" vertex="1" parent="_uEWm0PDSBc3kcxDk3wk-37">
          <mxGeometry x="-1" relative="1" as="geometry">
            <mxPoint x="10" as="offset" />
          </mxGeometry>
        </mxCell>
        <mxCell id="_uEWm0PDSBc3kcxDk3wk-40" value="" style="endArrow=none;html=1;edgeStyle=orthogonalEdgeStyle;rounded=0;" edge="1" parent="1" source="_uEWm0PDSBc3kcxDk3wk-3">
          <mxGeometry relative="1" as="geometry">
            <mxPoint x="790" y="480" as="sourcePoint" />
            <mxPoint x="830" y="440" as="targetPoint" />
          </mxGeometry>
        </mxCell>
        <mxCell id="_uEWm0PDSBc3kcxDk3wk-41" value="1" style="edgeLabel;resizable=0;html=1;align=left;verticalAlign=bottom;" connectable="0" vertex="1" parent="_uEWm0PDSBc3kcxDk3wk-40">
          <mxGeometry x="-1" relative="1" as="geometry">
            <mxPoint x="10" as="offset" />
          </mxGeometry>
        </mxCell>
        <mxCell id="_uEWm0PDSBc3kcxDk3wk-43" value="" style="endArrow=none;html=1;edgeStyle=orthogonalEdgeStyle;rounded=0;exitX=1;exitY=0.5;exitDx=0;exitDy=0;entryX=0.25;entryY=1;entryDx=0;entryDy=0;" edge="1" parent="1" source="_uEWm0PDSBc3kcxDk3wk-34" target="_uEWm0PDSBc3kcxDk3wk-32">
          <mxGeometry relative="1" as="geometry">
            <mxPoint x="800" y="490" as="sourcePoint" />
            <mxPoint x="1030" y="440" as="targetPoint" />
            <Array as="points">
              <mxPoint x="990" y="440" />
              <mxPoint x="990" y="400" />
            </Array>
          </mxGeometry>
        </mxCell>
        <mxCell id="_uEWm0PDSBc3kcxDk3wk-45" value="n" style="edgeLabel;resizable=0;html=1;align=right;verticalAlign=bottom;" connectable="0" vertex="1" parent="_uEWm0PDSBc3kcxDk3wk-43">
          <mxGeometry x="1" relative="1" as="geometry">
            <mxPoint x="-10" y="20" as="offset" />
          </mxGeometry>
        </mxCell>
        <mxCell id="_uEWm0PDSBc3kcxDk3wk-46" value="" style="endArrow=none;html=1;edgeStyle=orthogonalEdgeStyle;rounded=0;exitX=0.5;exitY=0;exitDx=0;exitDy=0;entryX=0;entryY=1;entryDx=0;entryDy=0;" edge="1" parent="1" source="_uEWm0PDSBc3kcxDk3wk-67" target="_uEWm0PDSBc3kcxDk3wk-4">
          <mxGeometry relative="1" as="geometry">
            <mxPoint x="354.94" y="550" as="sourcePoint" />
            <mxPoint x="464.94" y="460" as="targetPoint" />
            <Array as="points">
              <mxPoint x="350" y="500" />
              <mxPoint x="470" y="500" />
            </Array>
          </mxGeometry>
        </mxCell>
        <mxCell id="_uEWm0PDSBc3kcxDk3wk-48" value="1" style="edgeLabel;resizable=0;html=1;align=right;verticalAlign=bottom;" connectable="0" vertex="1" parent="_uEWm0PDSBc3kcxDk3wk-46">
          <mxGeometry x="1" relative="1" as="geometry">
            <mxPoint x="-10" y="30" as="offset" />
          </mxGeometry>
        </mxCell>
        <mxCell id="_uEWm0PDSBc3kcxDk3wk-49" value="" style="endArrow=none;html=1;edgeStyle=orthogonalEdgeStyle;rounded=0;exitX=0.5;exitY=1;exitDx=0;exitDy=0;entryX=0.5;entryY=0;entryDx=0;entryDy=0;" edge="1" parent="1" source="_uEWm0PDSBc3kcxDk3wk-67" target="_uEWm0PDSBc3kcxDk3wk-69">
          <mxGeometry relative="1" as="geometry">
            <mxPoint x="435" y="738.8199999999999" as="sourcePoint" />
            <mxPoint x="595" y="738.8199999999999" as="targetPoint" />
          </mxGeometry>
        </mxCell>
        <mxCell id="_uEWm0PDSBc3kcxDk3wk-51" value="n" style="edgeLabel;resizable=0;html=1;align=right;verticalAlign=bottom;" connectable="0" vertex="1" parent="_uEWm0PDSBc3kcxDk3wk-49">
          <mxGeometry x="1" relative="1" as="geometry">
            <mxPoint x="15" as="offset" />
          </mxGeometry>
        </mxCell>
        <mxCell id="_uEWm0PDSBc3kcxDk3wk-52" value="" style="endArrow=none;html=1;edgeStyle=orthogonalEdgeStyle;rounded=0;exitX=1;exitY=0.5;exitDx=0;exitDy=0;entryX=0.5;entryY=0;entryDx=0;entryDy=0;" edge="1" parent="1" source="_uEWm0PDSBc3kcxDk3wk-33" target="_uEWm0PDSBc3kcxDk3wk-32">
          <mxGeometry relative="1" as="geometry">
            <mxPoint x="830" y="520" as="sourcePoint" />
            <mxPoint x="990" y="520" as="targetPoint" />
            <Array as="points">
              <mxPoint x="1030" y="320" />
            </Array>
          </mxGeometry>
        </mxCell>
        <mxCell id="_uEWm0PDSBc3kcxDk3wk-54" value="n" style="edgeLabel;resizable=0;html=1;align=right;verticalAlign=bottom;" connectable="0" vertex="1" parent="_uEWm0PDSBc3kcxDk3wk-52">
          <mxGeometry x="1" relative="1" as="geometry">
            <mxPoint x="-10" y="-10" as="offset" />
          </mxGeometry>
        </mxCell>
        <mxCell id="_uEWm0PDSBc3kcxDk3wk-55" value="&lt;u&gt;&lt;b&gt;id&lt;/b&gt;&lt;/u&gt;" style="ellipse;whiteSpace=wrap;html=1;" vertex="1" parent="1">
          <mxGeometry x="1040" y="440" width="90" height="40" as="geometry" />
        </mxCell>
        <mxCell id="_uEWm0PDSBc3kcxDk3wk-56" value="title" style="ellipse;whiteSpace=wrap;html=1;" vertex="1" parent="1">
          <mxGeometry x="370" y="797.5" width="90" height="40" as="geometry" />
        </mxCell>
        <mxCell id="_uEWm0PDSBc3kcxDk3wk-58" value="name" style="ellipse;whiteSpace=wrap;html=1;" vertex="1" parent="1">
          <mxGeometry x="170" y="700" width="90" height="40" as="geometry" />
        </mxCell>
        <mxCell id="_uEWm0PDSBc3kcxDk3wk-59" value="return_date" style="ellipse;whiteSpace=wrap;html=1;" vertex="1" parent="1">
          <mxGeometry x="1100" y="390" width="90" height="40" as="geometry" />
        </mxCell>
        <mxCell id="_uEWm0PDSBc3kcxDk3wk-62" value="" style="endArrow=none;html=1;rounded=0;exitX=1;exitY=0;exitDx=0;exitDy=0;entryX=0;entryY=0.5;entryDx=0;entryDy=0;" edge="1" parent="1" source="_uEWm0PDSBc3kcxDk3wk-32" target="_uEWm0PDSBc3kcxDk3wk-21">
          <mxGeometry width="50" height="50" relative="1" as="geometry">
            <mxPoint x="1170" y="501" as="sourcePoint" />
            <mxPoint x="1231" y="410" as="targetPoint" />
          </mxGeometry>
        </mxCell>
        <mxCell id="_uEWm0PDSBc3kcxDk3wk-63" value="" style="endArrow=none;html=1;rounded=0;exitX=1;exitY=0.25;exitDx=0;exitDy=0;" edge="1" parent="1" source="_uEWm0PDSBc3kcxDk3wk-32" target="_uEWm0PDSBc3kcxDk3wk-20">
          <mxGeometry width="50" height="50" relative="1" as="geometry">
            <mxPoint x="1180" y="511" as="sourcePoint" />
            <mxPoint x="1241" y="420" as="targetPoint" />
          </mxGeometry>
        </mxCell>
        <mxCell id="_uEWm0PDSBc3kcxDk3wk-64" value="" style="endArrow=none;html=1;rounded=0;exitX=1;exitY=0.75;exitDx=0;exitDy=0;entryX=0;entryY=0;entryDx=0;entryDy=0;" edge="1" parent="1" source="_uEWm0PDSBc3kcxDk3wk-32" target="_uEWm0PDSBc3kcxDk3wk-59">
          <mxGeometry width="50" height="50" relative="1" as="geometry">
            <mxPoint x="1190" y="521" as="sourcePoint" />
            <mxPoint x="1110" y="400" as="targetPoint" />
          </mxGeometry>
        </mxCell>
        <mxCell id="_uEWm0PDSBc3kcxDk3wk-65" value="" style="endArrow=none;html=1;rounded=0;exitX=0.5;exitY=0;exitDx=0;exitDy=0;entryX=0.75;entryY=1;entryDx=0;entryDy=0;" edge="1" parent="1" source="_uEWm0PDSBc3kcxDk3wk-55" target="_uEWm0PDSBc3kcxDk3wk-32">
          <mxGeometry width="50" height="50" relative="1" as="geometry">
            <mxPoint x="1200" y="531" as="sourcePoint" />
            <mxPoint x="1261" y="440" as="targetPoint" />
          </mxGeometry>
        </mxCell>
        <mxCell id="_uEWm0PDSBc3kcxDk3wk-66" value="" style="endArrow=none;html=1;rounded=0;exitX=0.75;exitY=0;exitDx=0;exitDy=0;entryX=0.5;entryY=1;entryDx=0;entryDy=0;" edge="1" parent="1" source="_uEWm0PDSBc3kcxDk3wk-32" target="_uEWm0PDSBc3kcxDk3wk-19">
          <mxGeometry width="50" height="50" relative="1" as="geometry">
            <mxPoint x="1054.5" y="440" as="sourcePoint" />
            <mxPoint x="1115.5" y="349" as="targetPoint" />
          </mxGeometry>
        </mxCell>
        <mxCell id="_uEWm0PDSBc3kcxDk3wk-67" value="manage" style="rhombus;whiteSpace=wrap;html=1;" vertex="1" parent="1">
          <mxGeometry x="305" y="550" width="90" height="55" as="geometry" />
        </mxCell>
        <mxCell id="_uEWm0PDSBc3kcxDk3wk-68" value="manage" style="rhombus;whiteSpace=wrap;html=1;" vertex="1" parent="1">
          <mxGeometry x="440" y="550" width="90" height="55" as="geometry" />
        </mxCell>
        <mxCell id="_uEWm0PDSBc3kcxDk3wk-69" value="library" style="rounded=0;whiteSpace=wrap;html=1;" vertex="1" parent="1">
          <mxGeometry x="310" y="700" width="80" height="40" as="geometry" />
        </mxCell>
        <mxCell id="_uEWm0PDSBc3kcxDk3wk-70" value="&lt;u&gt;&lt;b&gt;id&lt;/b&gt;&lt;/u&gt;" style="ellipse;whiteSpace=wrap;html=1;" vertex="1" parent="1">
          <mxGeometry x="190" y="750" width="90" height="40" as="geometry" />
        </mxCell>
        <mxCell id="_uEWm0PDSBc3kcxDk3wk-71" value="email" style="ellipse;whiteSpace=wrap;html=1;" vertex="1" parent="1">
          <mxGeometry x="200" y="650" width="90" height="40" as="geometry" />
        </mxCell>
        <mxCell id="_uEWm0PDSBc3kcxDk3wk-72" value="phone" style="ellipse;whiteSpace=wrap;html=1;" vertex="1" parent="1">
          <mxGeometry x="210" y="600" width="90" height="40" as="geometry" />
        </mxCell>
        <mxCell id="_uEWm0PDSBc3kcxDk3wk-73" value="address" style="ellipse;whiteSpace=wrap;html=1;" vertex="1" parent="1">
          <mxGeometry x="250" y="790" width="90" height="40" as="geometry" />
        </mxCell>
        <mxCell id="_uEWm0PDSBc3kcxDk3wk-74" value="" style="endArrow=none;html=1;rounded=0;exitX=1;exitY=0.5;exitDx=0;exitDy=0;entryX=0.25;entryY=0;entryDx=0;entryDy=0;" edge="1" parent="1" source="_uEWm0PDSBc3kcxDk3wk-72" target="_uEWm0PDSBc3kcxDk3wk-69">
          <mxGeometry width="50" height="50" relative="1" as="geometry">
            <mxPoint x="440" y="901" as="sourcePoint" />
            <mxPoint x="501" y="810" as="targetPoint" />
            <Array as="points" />
          </mxGeometry>
        </mxCell>
        <mxCell id="_uEWm0PDSBc3kcxDk3wk-75" value="" style="endArrow=none;html=1;rounded=0;exitX=1;exitY=1;exitDx=0;exitDy=0;entryX=0;entryY=0;entryDx=0;entryDy=0;" edge="1" parent="1" source="_uEWm0PDSBc3kcxDk3wk-71" target="_uEWm0PDSBc3kcxDk3wk-69">
          <mxGeometry width="50" height="50" relative="1" as="geometry">
            <mxPoint x="450" y="911" as="sourcePoint" />
            <mxPoint x="511" y="820" as="targetPoint" />
          </mxGeometry>
        </mxCell>
        <mxCell id="_uEWm0PDSBc3kcxDk3wk-76" value="" style="endArrow=none;html=1;rounded=0;exitX=0;exitY=0.5;exitDx=0;exitDy=0;entryX=1;entryY=0.5;entryDx=0;entryDy=0;" edge="1" parent="1" source="_uEWm0PDSBc3kcxDk3wk-69" target="_uEWm0PDSBc3kcxDk3wk-58">
          <mxGeometry width="50" height="50" relative="1" as="geometry">
            <mxPoint x="460" y="921" as="sourcePoint" />
            <mxPoint x="521" y="830" as="targetPoint" />
          </mxGeometry>
        </mxCell>
        <mxCell id="_uEWm0PDSBc3kcxDk3wk-77" value="" style="endArrow=none;html=1;rounded=0;exitX=0;exitY=1;exitDx=0;exitDy=0;entryX=1;entryY=0;entryDx=0;entryDy=0;" edge="1" parent="1" source="_uEWm0PDSBc3kcxDk3wk-69" target="_uEWm0PDSBc3kcxDk3wk-70">
          <mxGeometry width="50" height="50" relative="1" as="geometry">
            <mxPoint x="470" y="931" as="sourcePoint" />
            <mxPoint x="531" y="840" as="targetPoint" />
          </mxGeometry>
        </mxCell>
        <mxCell id="_uEWm0PDSBc3kcxDk3wk-78" value="" style="endArrow=none;html=1;rounded=0;exitX=0.5;exitY=0;exitDx=0;exitDy=0;entryX=0.25;entryY=1;entryDx=0;entryDy=0;" edge="1" parent="1" source="_uEWm0PDSBc3kcxDk3wk-73" target="_uEWm0PDSBc3kcxDk3wk-69">
          <mxGeometry width="50" height="50" relative="1" as="geometry">
            <mxPoint x="410" y="881" as="sourcePoint" />
            <mxPoint x="471" y="790" as="targetPoint" />
          </mxGeometry>
        </mxCell>
        <mxCell id="_uEWm0PDSBc3kcxDk3wk-79" value="" style="endArrow=none;html=1;edgeStyle=orthogonalEdgeStyle;rounded=0;exitX=0.25;exitY=1;exitDx=0;exitDy=0;entryX=0.5;entryY=0;entryDx=0;entryDy=0;" edge="1" parent="1" source="_uEWm0PDSBc3kcxDk3wk-4" target="_uEWm0PDSBc3kcxDk3wk-68">
          <mxGeometry relative="1" as="geometry">
            <mxPoint x="740" y="809.9999999999999" as="sourcePoint" />
            <mxPoint x="900" y="809.9999999999999" as="targetPoint" />
            <Array as="points">
              <mxPoint x="490" y="550" />
            </Array>
          </mxGeometry>
        </mxCell>
        <mxCell id="_uEWm0PDSBc3kcxDk3wk-80" value="1" style="edgeLabel;resizable=0;html=1;align=left;verticalAlign=bottom;" connectable="0" vertex="1" parent="_uEWm0PDSBc3kcxDk3wk-79">
          <mxGeometry x="-1" relative="1" as="geometry">
            <mxPoint x="5" y="30" as="offset" />
          </mxGeometry>
        </mxCell>
        <mxCell id="_uEWm0PDSBc3kcxDk3wk-82" value="" style="endArrow=none;html=1;edgeStyle=orthogonalEdgeStyle;rounded=0;exitX=1;exitY=0.5;exitDx=0;exitDy=0;entryX=0;entryY=0.5;entryDx=0;entryDy=0;" edge="1" parent="1" source="_uEWm0PDSBc3kcxDk3wk-102" target="_uEWm0PDSBc3kcxDk3wk-100">
          <mxGeometry relative="1" as="geometry">
            <mxPoint x="755" y="551.9099999999999" as="sourcePoint" />
            <mxPoint x="915" y="551.9099999999999" as="targetPoint" />
          </mxGeometry>
        </mxCell>
        <mxCell id="_uEWm0PDSBc3kcxDk3wk-84" value="n" style="edgeLabel;resizable=0;html=1;align=right;verticalAlign=bottom;" connectable="0" vertex="1" parent="_uEWm0PDSBc3kcxDk3wk-82">
          <mxGeometry x="1" relative="1" as="geometry">
            <mxPoint x="-10" as="offset" />
          </mxGeometry>
        </mxCell>
        <mxCell id="_uEWm0PDSBc3kcxDk3wk-85" value="book" style="rounded=0;whiteSpace=wrap;html=1;" vertex="1" parent="1">
          <mxGeometry x="445" y="735" width="80" height="40" as="geometry" />
        </mxCell>
        <mxCell id="_uEWm0PDSBc3kcxDk3wk-86" value="publisher" style="ellipse;whiteSpace=wrap;html=1;" vertex="1" parent="1">
          <mxGeometry x="580" y="847.5" width="90" height="40" as="geometry" />
        </mxCell>
        <mxCell id="_uEWm0PDSBc3kcxDk3wk-87" value="description" style="ellipse;whiteSpace=wrap;html=1;" vertex="1" parent="1">
          <mxGeometry x="440" y="857.5" width="90" height="40" as="geometry" />
        </mxCell>
        <mxCell id="_uEWm0PDSBc3kcxDk3wk-88" value="&lt;u&gt;&lt;b&gt;id&lt;/b&gt;&lt;/u&gt;" style="ellipse;whiteSpace=wrap;html=1;" vertex="1" parent="1">
          <mxGeometry x="630" y="797.5" width="90" height="40" as="geometry" />
        </mxCell>
        <mxCell id="_uEWm0PDSBc3kcxDk3wk-89" value="" style="endArrow=none;html=1;edgeStyle=orthogonalEdgeStyle;rounded=0;exitX=0.5;exitY=1;exitDx=0;exitDy=0;entryX=0.5;entryY=0;entryDx=0;entryDy=0;" edge="1" parent="1" source="_uEWm0PDSBc3kcxDk3wk-3" target="_uEWm0PDSBc3kcxDk3wk-102">
          <mxGeometry relative="1" as="geometry">
            <mxPoint x="760" y="829.9999999999999" as="sourcePoint" />
            <mxPoint x="920" y="829.9999999999999" as="targetPoint" />
          </mxGeometry>
        </mxCell>
        <mxCell id="_uEWm0PDSBc3kcxDk3wk-90" value="1" style="edgeLabel;resizable=0;html=1;align=left;verticalAlign=bottom;" connectable="0" vertex="1" parent="_uEWm0PDSBc3kcxDk3wk-89">
          <mxGeometry x="-1" relative="1" as="geometry">
            <mxPoint x="10" y="20" as="offset" />
          </mxGeometry>
        </mxCell>
        <mxCell id="_uEWm0PDSBc3kcxDk3wk-92" value="" style="endArrow=none;html=1;edgeStyle=orthogonalEdgeStyle;rounded=0;exitX=0.5;exitY=0;exitDx=0;exitDy=0;entryX=0.5;entryY=1;entryDx=0;entryDy=0;" edge="1" parent="1" source="_uEWm0PDSBc3kcxDk3wk-85" target="_uEWm0PDSBc3kcxDk3wk-68">
          <mxGeometry relative="1" as="geometry">
            <mxPoint x="770" y="839.9999999999999" as="sourcePoint" />
            <mxPoint x="930" y="839.9999999999999" as="targetPoint" />
          </mxGeometry>
        </mxCell>
        <mxCell id="_uEWm0PDSBc3kcxDk3wk-93" value="n" style="edgeLabel;resizable=0;html=1;align=left;verticalAlign=bottom;" connectable="0" vertex="1" parent="_uEWm0PDSBc3kcxDk3wk-92">
          <mxGeometry x="-1" relative="1" as="geometry">
            <mxPoint x="-15" y="-22" as="offset" />
          </mxGeometry>
        </mxCell>
        <mxCell id="_uEWm0PDSBc3kcxDk3wk-95" value="" style="endArrow=none;html=1;rounded=0;exitX=0.25;exitY=1;exitDx=0;exitDy=0;entryX=1;entryY=0;entryDx=0;entryDy=0;" edge="1" parent="1" source="_uEWm0PDSBc3kcxDk3wk-85" target="_uEWm0PDSBc3kcxDk3wk-56">
          <mxGeometry width="50" height="50" relative="1" as="geometry">
            <mxPoint x="490" y="787.5" as="sourcePoint" />
            <mxPoint x="465" y="807.4999999999998" as="targetPoint" />
            <Array as="points" />
          </mxGeometry>
        </mxCell>
        <mxCell id="_uEWm0PDSBc3kcxDk3wk-96" value="" style="endArrow=none;html=1;rounded=0;exitX=1;exitY=1;exitDx=0;exitDy=0;entryX=0.5;entryY=0;entryDx=0;entryDy=0;" edge="1" parent="1" source="_uEWm0PDSBc3kcxDk3wk-85" target="_uEWm0PDSBc3kcxDk3wk-86">
          <mxGeometry width="50" height="50" relative="1" as="geometry">
            <mxPoint x="500" y="787.5" as="sourcePoint" />
            <mxPoint x="475" y="817.5" as="targetPoint" />
            <Array as="points" />
          </mxGeometry>
        </mxCell>
        <mxCell id="_uEWm0PDSBc3kcxDk3wk-97" value="" style="endArrow=none;html=1;rounded=0;exitX=0.75;exitY=1;exitDx=0;exitDy=0;entryX=0.5;entryY=0;entryDx=0;entryDy=0;" edge="1" parent="1" source="_uEWm0PDSBc3kcxDk3wk-85" target="_uEWm0PDSBc3kcxDk3wk-18">
          <mxGeometry width="50" height="50" relative="1" as="geometry">
            <mxPoint x="510" y="797.5" as="sourcePoint" />
            <mxPoint x="485" y="827.5" as="targetPoint" />
            <Array as="points" />
          </mxGeometry>
        </mxCell>
        <mxCell id="_uEWm0PDSBc3kcxDk3wk-98" value="" style="endArrow=none;html=1;rounded=0;exitX=0.5;exitY=1;exitDx=0;exitDy=0;entryX=0.5;entryY=0;entryDx=0;entryDy=0;" edge="1" parent="1" source="_uEWm0PDSBc3kcxDk3wk-85" target="_uEWm0PDSBc3kcxDk3wk-87">
          <mxGeometry width="50" height="50" relative="1" as="geometry">
            <mxPoint x="520" y="807.5" as="sourcePoint" />
            <mxPoint x="495" y="837.5" as="targetPoint" />
            <Array as="points" />
          </mxGeometry>
        </mxCell>
        <mxCell id="_uEWm0PDSBc3kcxDk3wk-99" value="" style="endArrow=none;html=1;rounded=0;exitX=1;exitY=0.75;exitDx=0;exitDy=0;entryX=0;entryY=0.5;entryDx=0;entryDy=0;" edge="1" parent="1" source="_uEWm0PDSBc3kcxDk3wk-85" target="_uEWm0PDSBc3kcxDk3wk-88">
          <mxGeometry width="50" height="50" relative="1" as="geometry">
            <mxPoint x="560" y="787.5" as="sourcePoint" />
            <mxPoint x="685" y="847.5" as="targetPoint" />
            <Array as="points" />
          </mxGeometry>
        </mxCell>
        <mxCell id="_uEWm0PDSBc3kcxDk3wk-100" value="bookcopy" style="rounded=0;whiteSpace=wrap;html=1;" vertex="1" parent="1">
          <mxGeometry x="830" y="580" width="80" height="40" as="geometry" />
        </mxCell>
        <mxCell id="_uEWm0PDSBc3kcxDk3wk-101" value="genre" style="rounded=0;whiteSpace=wrap;html=1;" vertex="1" parent="1">
          <mxGeometry x="575" y="572.5" width="80" height="40" as="geometry" />
        </mxCell>
        <mxCell id="_uEWm0PDSBc3kcxDk3wk-102" value="manage" style="rhombus;whiteSpace=wrap;html=1;" vertex="1" parent="1">
          <mxGeometry x="665" y="572.5" width="90" height="55" as="geometry" />
        </mxCell>
        <mxCell id="_uEWm0PDSBc3kcxDk3wk-104" value="&lt;u&gt;&lt;b&gt;id&lt;/b&gt;&lt;/u&gt;" style="ellipse;whiteSpace=wrap;html=1;" vertex="1" parent="1">
          <mxGeometry x="740" y="520" width="90" height="40" as="geometry" />
        </mxCell>
        <mxCell id="_uEWm0PDSBc3kcxDk3wk-105" value="description" style="ellipse;whiteSpace=wrap;html=1;" vertex="1" parent="1">
          <mxGeometry x="520" y="500" width="90" height="40" as="geometry" />
        </mxCell>
        <mxCell id="_uEWm0PDSBc3kcxDk3wk-106" value="format" style="ellipse;whiteSpace=wrap;html=1;" vertex="1" parent="1">
          <mxGeometry x="890" y="647.5" width="90" height="40" as="geometry" />
        </mxCell>
        <mxCell id="_uEWm0PDSBc3kcxDk3wk-107" value="year_published" style="ellipse;whiteSpace=wrap;html=1;" vertex="1" parent="1">
          <mxGeometry x="720" y="627.5" width="90" height="40" as="geometry" />
        </mxCell>
        <mxCell id="_uEWm0PDSBc3kcxDk3wk-108" value="numOfPages" style="ellipse;whiteSpace=wrap;html=1;" vertex="1" parent="1">
          <mxGeometry x="910" y="450" width="90" height="40" as="geometry" />
        </mxCell>
        <mxCell id="_uEWm0PDSBc3kcxDk3wk-109" value="ISBN" style="ellipse;whiteSpace=wrap;html=1;" vertex="1" parent="1">
          <mxGeometry x="850" y="490" width="90" height="40" as="geometry" />
        </mxCell>
        <mxCell id="_uEWm0PDSBc3kcxDk3wk-110" value="location" style="ellipse;whiteSpace=wrap;html=1;" vertex="1" parent="1">
          <mxGeometry x="750" y="467.5" width="90" height="40" as="geometry" />
        </mxCell>
        <mxCell id="_uEWm0PDSBc3kcxDk3wk-111" value="have" style="rhombus;whiteSpace=wrap;html=1;" vertex="1" parent="1">
          <mxGeometry x="665" y="727.5" width="90" height="55" as="geometry" />
        </mxCell>
        <mxCell id="_uEWm0PDSBc3kcxDk3wk-112" value="" style="endArrow=none;html=1;edgeStyle=orthogonalEdgeStyle;rounded=0;exitX=0;exitY=1;exitDx=0;exitDy=0;entryX=1;entryY=0.5;entryDx=0;entryDy=0;" edge="1" parent="1" source="_uEWm0PDSBc3kcxDk3wk-100" target="_uEWm0PDSBc3kcxDk3wk-111">
          <mxGeometry relative="1" as="geometry">
            <mxPoint x="520" y="710" as="sourcePoint" />
            <mxPoint x="520" y="615" as="targetPoint" />
          </mxGeometry>
        </mxCell>
        <mxCell id="_uEWm0PDSBc3kcxDk3wk-113" value="n" style="edgeLabel;resizable=0;html=1;align=left;verticalAlign=bottom;" connectable="0" vertex="1" parent="_uEWm0PDSBc3kcxDk3wk-112">
          <mxGeometry x="-1" relative="1" as="geometry">
            <mxPoint x="-20" y="90" as="offset" />
          </mxGeometry>
        </mxCell>
        <mxCell id="_uEWm0PDSBc3kcxDk3wk-114" value="" style="endArrow=none;html=1;edgeStyle=orthogonalEdgeStyle;rounded=0;exitX=1;exitY=0.5;exitDx=0;exitDy=0;entryX=0;entryY=0.5;entryDx=0;entryDy=0;" edge="1" parent="1" source="_uEWm0PDSBc3kcxDk3wk-85" target="_uEWm0PDSBc3kcxDk3wk-111">
          <mxGeometry relative="1" as="geometry">
            <mxPoint x="520" y="507.5" as="sourcePoint" />
            <mxPoint x="520" y="597.5" as="targetPoint" />
          </mxGeometry>
        </mxCell>
        <mxCell id="_uEWm0PDSBc3kcxDk3wk-115" value="1" style="edgeLabel;resizable=0;html=1;align=left;verticalAlign=bottom;" connectable="0" vertex="1" parent="_uEWm0PDSBc3kcxDk3wk-114">
          <mxGeometry x="-1" relative="1" as="geometry">
            <mxPoint x="80" as="offset" />
          </mxGeometry>
        </mxCell>
        <mxCell id="_uEWm0PDSBc3kcxDk3wk-116" value="have" style="rhombus;whiteSpace=wrap;html=1;" vertex="1" parent="1">
          <mxGeometry x="570" y="640" width="90" height="55" as="geometry" />
        </mxCell>
        <mxCell id="_uEWm0PDSBc3kcxDk3wk-117" value="" style="endArrow=none;html=1;edgeStyle=orthogonalEdgeStyle;rounded=0;exitX=1;exitY=0;exitDx=0;exitDy=0;entryX=0.5;entryY=1;entryDx=0;entryDy=0;" edge="1" parent="1" source="_uEWm0PDSBc3kcxDk3wk-85" target="_uEWm0PDSBc3kcxDk3wk-116">
          <mxGeometry relative="1" as="geometry">
            <mxPoint x="560" y="730" as="sourcePoint" />
            <mxPoint x="675" y="730" as="targetPoint" />
          </mxGeometry>
        </mxCell>
        <mxCell id="_uEWm0PDSBc3kcxDk3wk-118" value="n" style="edgeLabel;resizable=0;html=1;align=left;verticalAlign=bottom;" connectable="0" vertex="1" parent="_uEWm0PDSBc3kcxDk3wk-117">
          <mxGeometry x="-1" relative="1" as="geometry">
            <mxPoint x="25" y="-22" as="offset" />
          </mxGeometry>
        </mxCell>
        <mxCell id="_uEWm0PDSBc3kcxDk3wk-120" value="" style="endArrow=none;html=1;edgeStyle=orthogonalEdgeStyle;rounded=0;exitX=0.5;exitY=1;exitDx=0;exitDy=0;entryX=0.5;entryY=0;entryDx=0;entryDy=0;" edge="1" parent="1" source="_uEWm0PDSBc3kcxDk3wk-101" target="_uEWm0PDSBc3kcxDk3wk-116">
          <mxGeometry relative="1" as="geometry">
            <mxPoint x="860" y="630" as="sourcePoint" />
            <mxPoint x="765" y="730" as="targetPoint" />
          </mxGeometry>
        </mxCell>
        <mxCell id="_uEWm0PDSBc3kcxDk3wk-121" value="n" style="edgeLabel;resizable=0;html=1;align=left;verticalAlign=bottom;" connectable="0" vertex="1" parent="_uEWm0PDSBc3kcxDk3wk-120">
          <mxGeometry x="-1" relative="1" as="geometry">
            <mxPoint x="10" y="23" as="offset" />
          </mxGeometry>
        </mxCell>
        <mxCell id="_uEWm0PDSBc3kcxDk3wk-123" value="&lt;u&gt;&lt;b&gt;id&lt;/b&gt;&lt;/u&gt;" style="ellipse;whiteSpace=wrap;html=1;" vertex="1" parent="1">
          <mxGeometry x="610" y="520" width="90" height="40" as="geometry" />
        </mxCell>
        <mxCell id="_uEWm0PDSBc3kcxDk3wk-124" value="" style="endArrow=none;html=1;rounded=0;exitX=0.5;exitY=1;exitDx=0;exitDy=0;entryX=0;entryY=0;entryDx=0;entryDy=0;" edge="1" parent="1" source="_uEWm0PDSBc3kcxDk3wk-104" target="_uEWm0PDSBc3kcxDk3wk-100">
          <mxGeometry width="50" height="50" relative="1" as="geometry">
            <mxPoint x="1095" y="450" as="sourcePoint" />
            <mxPoint x="1060" y="410" as="targetPoint" />
          </mxGeometry>
        </mxCell>
        <mxCell id="_uEWm0PDSBc3kcxDk3wk-125" value="" style="endArrow=none;html=1;rounded=0;exitX=0.5;exitY=1;exitDx=0;exitDy=0;entryX=1;entryY=0;entryDx=0;entryDy=0;" edge="1" parent="1" source="_uEWm0PDSBc3kcxDk3wk-108" target="_uEWm0PDSBc3kcxDk3wk-100">
          <mxGeometry width="50" height="50" relative="1" as="geometry">
            <mxPoint x="795" y="570" as="sourcePoint" />
            <mxPoint x="840" y="590" as="targetPoint" />
          </mxGeometry>
        </mxCell>
        <mxCell id="_uEWm0PDSBc3kcxDk3wk-126" value="" style="endArrow=none;html=1;rounded=0;exitX=0.5;exitY=1;exitDx=0;exitDy=0;entryX=0.5;entryY=0;entryDx=0;entryDy=0;" edge="1" parent="1" source="_uEWm0PDSBc3kcxDk3wk-109" target="_uEWm0PDSBc3kcxDk3wk-100">
          <mxGeometry width="50" height="50" relative="1" as="geometry">
            <mxPoint x="805" y="580" as="sourcePoint" />
            <mxPoint x="850" y="600" as="targetPoint" />
          </mxGeometry>
        </mxCell>
        <mxCell id="_uEWm0PDSBc3kcxDk3wk-127" value="" style="endArrow=none;html=1;rounded=0;exitX=1;exitY=1;exitDx=0;exitDy=0;entryX=0.25;entryY=0;entryDx=0;entryDy=0;" edge="1" parent="1" source="_uEWm0PDSBc3kcxDk3wk-110" target="_uEWm0PDSBc3kcxDk3wk-100">
          <mxGeometry width="50" height="50" relative="1" as="geometry">
            <mxPoint x="815" y="590" as="sourcePoint" />
            <mxPoint x="860" y="610" as="targetPoint" />
          </mxGeometry>
        </mxCell>
        <mxCell id="_uEWm0PDSBc3kcxDk3wk-128" value="" style="endArrow=none;html=1;rounded=0;exitX=0;exitY=0;exitDx=0;exitDy=0;entryX=0.75;entryY=1;entryDx=0;entryDy=0;" edge="1" parent="1" source="_uEWm0PDSBc3kcxDk3wk-106" target="_uEWm0PDSBc3kcxDk3wk-100">
          <mxGeometry width="50" height="50" relative="1" as="geometry">
            <mxPoint x="965" y="500" as="sourcePoint" />
            <mxPoint x="920" y="590" as="targetPoint" />
          </mxGeometry>
        </mxCell>
        <mxCell id="_uEWm0PDSBc3kcxDk3wk-129" value="status" style="ellipse;whiteSpace=wrap;html=1;" vertex="1" parent="1">
          <mxGeometry x="860" y="695" width="90" height="40" as="geometry" />
        </mxCell>
        <mxCell id="_uEWm0PDSBc3kcxDk3wk-130" value="" style="endArrow=none;html=1;rounded=0;exitX=0;exitY=0.75;exitDx=0;exitDy=0;entryX=0.5;entryY=0;entryDx=0;entryDy=0;" edge="1" parent="1" source="_uEWm0PDSBc3kcxDk3wk-100" target="_uEWm0PDSBc3kcxDk3wk-107">
          <mxGeometry width="50" height="50" relative="1" as="geometry">
            <mxPoint x="913" y="663" as="sourcePoint" />
            <mxPoint x="900" y="630" as="targetPoint" />
          </mxGeometry>
        </mxCell>
        <mxCell id="_uEWm0PDSBc3kcxDk3wk-131" value="" style="endArrow=none;html=1;rounded=0;exitX=0;exitY=0;exitDx=0;exitDy=0;entryX=0.5;entryY=1;entryDx=0;entryDy=0;" edge="1" parent="1" source="_uEWm0PDSBc3kcxDk3wk-129" target="_uEWm0PDSBc3kcxDk3wk-100">
          <mxGeometry width="50" height="50" relative="1" as="geometry">
            <mxPoint x="965" y="500" as="sourcePoint" />
            <mxPoint x="920" y="590" as="targetPoint" />
          </mxGeometry>
        </mxCell>
        <mxCell id="_uEWm0PDSBc3kcxDk3wk-132" value="have" style="rhombus;whiteSpace=wrap;html=1;" vertex="1" parent="1">
          <mxGeometry x="985" y="572.5" width="90" height="55" as="geometry" />
        </mxCell>
        <mxCell id="_uEWm0PDSBc3kcxDk3wk-133" value="" style="endArrow=none;html=1;edgeStyle=orthogonalEdgeStyle;rounded=0;exitX=0.5;exitY=1;exitDx=0;exitDy=0;entryX=0.5;entryY=0;entryDx=0;entryDy=0;" edge="1" parent="1" source="_uEWm0PDSBc3kcxDk3wk-32" target="_uEWm0PDSBc3kcxDk3wk-132">
          <mxGeometry relative="1" as="geometry">
            <mxPoint x="1050" y="756.91" as="sourcePoint" />
            <mxPoint x="1180" y="756.91" as="targetPoint" />
          </mxGeometry>
        </mxCell>
        <mxCell id="_uEWm0PDSBc3kcxDk3wk-134" value="1" style="edgeLabel;resizable=0;html=1;align=left;verticalAlign=bottom;" connectable="0" vertex="1" parent="_uEWm0PDSBc3kcxDk3wk-133">
          <mxGeometry x="-1" relative="1" as="geometry">
            <mxPoint x="10" y="140" as="offset" />
          </mxGeometry>
        </mxCell>
        <mxCell id="_uEWm0PDSBc3kcxDk3wk-135" value="" style="endArrow=none;html=1;edgeStyle=orthogonalEdgeStyle;rounded=0;exitX=0;exitY=0.5;exitDx=0;exitDy=0;entryX=1;entryY=0.5;entryDx=0;entryDy=0;" edge="1" parent="1" source="_uEWm0PDSBc3kcxDk3wk-132" target="_uEWm0PDSBc3kcxDk3wk-100">
          <mxGeometry relative="1" as="geometry">
            <mxPoint x="1160" y="612" as="sourcePoint" />
            <mxPoint x="1160" y="785" as="targetPoint" />
          </mxGeometry>
        </mxCell>
        <mxCell id="_uEWm0PDSBc3kcxDk3wk-136" value="1" style="edgeLabel;resizable=0;html=1;align=left;verticalAlign=bottom;" connectable="0" vertex="1" parent="_uEWm0PDSBc3kcxDk3wk-135">
          <mxGeometry x="-1" relative="1" as="geometry">
            <mxPoint x="-45" as="offset" />
          </mxGeometry>
        </mxCell>
        <mxCell id="_uEWm0PDSBc3kcxDk3wk-137" value="have" style="rhombus;whiteSpace=wrap;html=1;" vertex="1" parent="1">
          <mxGeometry x="470" y="910" width="90" height="55" as="geometry" />
        </mxCell>
        <mxCell id="_uEWm0PDSBc3kcxDk3wk-138" value="" style="endArrow=none;html=1;edgeStyle=orthogonalEdgeStyle;rounded=0;exitX=0;exitY=0.5;exitDx=0;exitDy=0;entryX=0.75;entryY=1;entryDx=0;entryDy=0;" edge="1" parent="1" source="_uEWm0PDSBc3kcxDk3wk-137" target="_uEWm0PDSBc3kcxDk3wk-69">
          <mxGeometry relative="1" as="geometry">
            <mxPoint x="230" y="965" as="sourcePoint" />
            <mxPoint x="350" y="875" as="targetPoint" />
            <Array as="points">
              <mxPoint x="350" y="938" />
              <mxPoint x="350" y="740" />
            </Array>
          </mxGeometry>
        </mxCell>
        <mxCell id="_uEWm0PDSBc3kcxDk3wk-139" value="1" style="edgeLabel;resizable=0;html=1;align=right;verticalAlign=bottom;" connectable="0" vertex="1" parent="_uEWm0PDSBc3kcxDk3wk-138">
          <mxGeometry x="1" relative="1" as="geometry">
            <mxPoint x="-5" y="108" as="offset" />
          </mxGeometry>
        </mxCell>
        <mxCell id="_uEWm0PDSBc3kcxDk3wk-140" value="" style="endArrow=none;html=1;edgeStyle=orthogonalEdgeStyle;rounded=0;exitX=0.25;exitY=1;exitDx=0;exitDy=0;entryX=1;entryY=0.5;entryDx=0;entryDy=0;" edge="1" parent="1" source="_uEWm0PDSBc3kcxDk3wk-100" target="_uEWm0PDSBc3kcxDk3wk-137">
          <mxGeometry relative="1" as="geometry">
            <mxPoint x="840" y="630" as="sourcePoint" />
            <mxPoint x="765" y="767" as="targetPoint" />
          </mxGeometry>
        </mxCell>
        <mxCell id="_uEWm0PDSBc3kcxDk3wk-141" value="n" style="edgeLabel;resizable=0;html=1;align=left;verticalAlign=bottom;" connectable="0" vertex="1" parent="_uEWm0PDSBc3kcxDk3wk-140">
          <mxGeometry x="-1" relative="1" as="geometry">
            <mxPoint x="-30" y="300" as="offset" />
          </mxGeometry>
        </mxCell>
        <mxCell id="_uEWm0PDSBc3kcxDk3wk-144" value="" style="endArrow=none;html=1;rounded=0;exitX=0.75;exitY=0;exitDx=0;exitDy=0;entryX=0.5;entryY=1;entryDx=0;entryDy=0;" edge="1" parent="1" source="_uEWm0PDSBc3kcxDk3wk-101" target="_uEWm0PDSBc3kcxDk3wk-123">
          <mxGeometry width="50" height="50" relative="1" as="geometry">
            <mxPoint x="840" y="620" as="sourcePoint" />
            <mxPoint x="775" y="638" as="targetPoint" />
          </mxGeometry>
        </mxCell>
        <mxCell id="_uEWm0PDSBc3kcxDk3wk-145" value="" style="endArrow=none;html=1;rounded=0;exitX=0.25;exitY=0;exitDx=0;exitDy=0;entryX=0.5;entryY=1;entryDx=0;entryDy=0;" edge="1" parent="1" source="_uEWm0PDSBc3kcxDk3wk-101" target="_uEWm0PDSBc3kcxDk3wk-105">
          <mxGeometry width="50" height="50" relative="1" as="geometry">
            <mxPoint x="850" y="630" as="sourcePoint" />
            <mxPoint x="590" y="560" as="targetPoint" />
          </mxGeometry>
        </mxCell>
        <mxCell id="_uEWm0PDSBc3kcxDk3wk-146" value="name" style="ellipse;whiteSpace=wrap;html=1;" vertex="1" parent="1">
          <mxGeometry x="510" y="620" width="70" height="40" as="geometry" />
        </mxCell>
        <mxCell id="_uEWm0PDSBc3kcxDk3wk-147" value="" style="endArrow=none;html=1;rounded=0;exitX=0;exitY=0.5;exitDx=0;exitDy=0;entryX=0.5;entryY=0;entryDx=0;entryDy=0;" edge="1" parent="1" source="_uEWm0PDSBc3kcxDk3wk-101" target="_uEWm0PDSBc3kcxDk3wk-146">
          <mxGeometry width="50" height="50" relative="1" as="geometry">
            <mxPoint x="605" y="583" as="sourcePoint" />
            <mxPoint x="575" y="550" as="targetPoint" />
          </mxGeometry>
        </mxCell>
      </root>
    </mxGraphModel>
  </diagram>
</mxfile>
